<svg width="447" height="409" viewBox="0 0 447 409" fill="none" xmlns="http://www.w3.org/2000/svg">
<g clip-path="url(#clip0)">
<path d="M166.213 78.0722C166.943 73.2348 166.381 68.2893 164.583 63.7421C162.786 59.1949 159.817 55.2094 155.982 52.1937C152.147 49.178 147.583 47.2406 142.757 46.5797C137.932 45.9189 133.018 46.5584 128.519 48.4328C124.085 42.5534 115.927 39.3304 109.018 41.8329C102.109 44.3354 97.8772 53.2178 101.277 59.7573C97.149 59.9883 95.1672 64.9492 94.7073 69.0742C92.6488 86.9986 100.499 104.676 110.666 119.553C125.634 141.405 145.696 159.247 169.103 171.522C175.914 175.114 185.117 177.864 190.592 172.474C202.543 160.781 187.679 135.904 188.194 121.373C188.774 105.561 188.029 78.9027 166.213 78.0722Z" fill="#6B8262"/>
<path d="M354.833 92.6692C357.478 88.4562 360.16 84.1662 361.452 79.3648C362.744 74.5633 362.482 69.0743 359.564 65.0648C365.471 61.1709 371.296 56.8754 375.44 51.1114C379.585 45.3474 381.807 37.84 379.869 31.0145C377.931 24.189 371.066 18.6451 364.069 19.657C367.075 13.5356 365.361 5.12062 359.574 1.50714C353.788 -2.10635 344.749 0.957141 343.15 7.62311C340.45 5.22488 337.189 3.5512 333.672 2.75754C330.155 1.96387 326.496 2.07595 323.034 3.08337C319.571 4.09079 316.419 5.96087 313.868 8.51993C311.318 11.079 309.453 14.244 308.446 17.7211C294.069 15.7301 279.167 21.9395 269.22 32.571C259.272 43.2024 254.06 57.7719 253.37 72.3413C253.195 76.1033 253.25 80.0688 251.41 83.3412C250.069 85.7227 247.874 87.4662 245.87 89.3197C230.267 103.763 225.307 126.5 224.754 147.806C224.272 166.275 226.758 185.591 237.006 200.931C247.255 216.27 266.838 226.396 284.456 221.094C295.695 217.711 304.581 208.697 310.362 198.439C316.144 188.182 319.22 176.654 322.242 165.263C325.576 152.701 327.323 136.856 333.531 125.493C339.636 114.312 348.023 103.581 354.833 92.6692Z" fill="#6B8262"/>
<path d="M216.804 29.9144C211.067 20.1465 203.118 11.264 194.418 2.90955C184.055 11.627 177.797 22.9129 174.271 34.4739C170.746 46.0348 169.793 57.9808 168.851 69.8497C168.419 75.3497 167.992 80.9377 169.618 86.3056C170.494 89.251 172.028 91.9568 174.102 94.2174C176.176 96.478 178.735 98.2339 181.586 99.3516C188.024 101.86 196.006 101.139 202.269 98.4111C208.532 95.6831 213.219 91.1786 216.744 86.3111C229.21 68.9642 227.163 47.5143 216.804 29.9144Z" fill="#EACEA4"/>
<path d="M309.07 19.2334C299.998 21.1474 292.197 25.8829 285.348 31.1408C279.326 35.7773 273.763 40.9638 270.019 47.0248C266.274 53.0857 264.434 60.1092 266 66.8247C267.221 72.0166 270.413 76.7741 274.212 81.0531C279.134 86.6844 285.204 91.1862 292.011 94.253C296.357 96.1725 307.663 100.457 311.221 95.936C313.346 93.2355 313.05 87.3561 313.493 84.1936C314.066 80.0906 314.481 75.9748 314.736 71.8461C315.805 54.119 313.891 36.3377 309.075 19.2499L309.07 19.2334Z" fill="#EACEA4"/>
<path d="M301.411 163.201C301.214 185.784 295.268 208.025 286.563 228.848C282.222 239.238 277.141 249.407 270.271 258.312C263.441 267.158 254.976 274.596 245.339 280.218C240.537 283.012 235.424 285.355 230.01 286.62C211.166 291.02 191.068 281.494 178.476 266.727C165.884 251.959 159.638 232.797 155.608 213.784C150.604 190.134 148.628 165.285 154.864 141.932C161.099 118.579 176.538 96.8325 198.727 87.4825C206.271 84.3035 214.368 82.604 222.493 81.592C234.05 80.1455 245.968 80.0905 257.126 83.44C268.026 86.7125 278.609 93.648 284.133 103.889C284.227 103.384 284.349 102.884 284.499 102.393C297.83 117.292 301.575 143.978 301.411 163.201Z" fill="#EACEA4"/>
<path d="M295.871 55.2142C300.645 59.5152 305.008 64.3772 308.041 70.0642C317.759 88.2581 311.479 112.15 297.015 126.824C282.551 141.498 261.648 148.125 241.173 149.88C222.559 151.475 202.472 148.972 188.068 137.004C174.846 126.004 168.359 108.404 167.521 91.2006C166.7 74.9041 171.041 57.4087 183.195 46.5903C192.272 38.5163 204.547 35.1008 216.564 33.4728C245.788 29.5294 273.506 35.0458 295.871 55.2142Z" fill="#EACEA4"/>
<path d="M30.215 132.764C25.4301 134.414 20.5959 137.059 18.2911 141.564C15.9862 146.068 17.5028 152.773 22.3096 154.373C10.851 151.898 -1.31934 163.085 0.115051 174.767C1.54942 186.449 16.0683 194.325 26.5852 189.122C24.3953 192.527 25.6929 197.372 28.6383 200.122C31.5836 202.872 35.7554 203.972 39.741 204.412C46.956 205.175 54.2471 204.144 60.972 201.409C60.4245 208.586 66.4467 214.928 73.2846 217.139C80.1225 219.35 87.4915 218.409 94.5922 217.447C93.0812 224.047 98.0632 230.707 104.222 233.435C110.381 236.163 117.362 235.894 124.096 235.586C123.515 249.743 132.811 262.965 144.899 270.285C156.988 277.606 171.408 279.899 185.5 280.532C188.298 280.658 191.309 280.669 193.635 279.102C195.415 277.903 196.526 275.945 197.429 273.992C204.24 259.335 202.483 241.817 196.334 226.857C190.186 211.897 180.124 198.967 170.127 186.29C154.798 166.82 137.766 146.349 113.962 139.644C100.456 135.838 86.1392 136.652 72.436 133.688C58.3167 130.646 44.3453 127.814 30.215 132.764Z" fill="#D4C962"/>
<path d="M205.083 187.395C202.663 184.095 199.904 181.032 197.966 177.446C194.955 171.946 193.98 165.61 192.059 159.648C189.56 152.043 185.524 145.039 180.203 139.076C174.882 133.113 168.391 128.32 161.137 124.998C158.154 123.656 154.94 122.49 152.745 120.048C151.102 118.238 150.204 115.901 149.186 113.684C140.925 95.7105 122.36 82.9726 102.695 81.7846C100.286 81.6361 97.8333 81.6471 95.5065 80.9926C93.2674 80.3656 91.2471 79.1556 89.1668 78.1216C72.5126 69.8717 50.7069 73.7217 37.896 87.2351C33.2042 92.1851 29.5634 98.7355 30.1492 105.545C30.735 112.353 36.812 118.86 43.5623 118.007C41.9199 127.759 47.7286 137.576 55.6834 143.395C63.6382 149.214 73.4489 151.783 83.057 153.922C85.017 154.362 87.185 154.918 88.2799 156.612C88.9314 157.607 89.0846 158.812 89.3146 160.005C91.5373 171.231 102.109 179.255 113.157 182.005C117.449 183.105 121.917 183.562 126.012 185.267C130.107 186.972 133.895 190.266 134.618 194.655C134.974 196.811 134.558 199.055 134.892 201.206C135.91 207.883 143.153 211.336 149.339 213.987C155.526 216.638 162.55 221.082 162.287 227.831C162.161 231.092 160.305 234.684 162.145 237.373C163.371 239.166 165.72 239.672 167.756 240.415C170.25 241.342 172.514 242.798 174.395 244.686C176.277 246.573 177.73 248.845 178.657 251.349C180.162 255.485 180.146 260.066 181.744 264.169C183.343 268.272 186.507 271.649 189.781 274.619C198.163 282.281 210.946 288.457 220.27 278.431C226.506 271.715 223.182 265.231 221.529 257.344C216.356 232.863 221.036 209.12 205.083 187.395Z" fill="#D4C962"/>
<path d="M288.217 248.764C296.527 237.148 313.866 237.065 325.231 228.441C336.728 219.707 340.654 203.345 352.446 194.991C362.542 187.841 377.323 187.384 384.528 177.303C389.455 170.406 389.22 160.918 393.6 153.653C397.224 147.647 403.525 143.912 409.279 139.903C418.434 133.545 426.717 126.006 433.915 117.479C442.078 107.8 449.091 95.3916 446.442 82.9837C444.066 71.8462 433.85 63.3763 422.714 61.2863C411.579 59.1963 399.89 62.7768 390.506 69.1622C381.123 75.5477 373.787 84.5622 367.48 94.0166C366.215 95.9141 364.912 97.9106 362.925 99.0161C360.105 100.589 356.645 100.012 353.426 99.7751C338.267 98.6751 322.806 106.898 315.24 120.125C310.86 127.825 308.939 136.916 303.294 143.709C296.144 152.322 283.941 156.023 278.176 165.632C271.508 176.736 275.324 192.824 266.301 202.097C263.701 204.775 260.318 206.497 257.208 208.57C246.176 215.874 238.594 227.27 231.373 238.391C227.825 243.825 224.217 249.391 222.646 255.694C221.075 261.997 221.88 269.29 226.325 274.009C229.648 277.54 234.493 279.179 239.24 280.059C264.467 284.926 275.603 266.413 288.217 248.764Z" fill="#D4C962"/>
<path d="M95.7528 115.912C90.0372 112.221 83.5004 108.602 76.8267 109.862C79.3943 113.877 83.9438 116.016 88.1538 118.255C107.146 128.391 122.48 144.105 137.377 159.708C148.874 171.764 160.371 183.908 170.121 197.499C179.872 211.089 187.799 226.142 191.473 242.439C193.115 249.693 193.816 257.767 197.67 264.29C202.351 272.216 204.743 262.712 203.692 257.811C200.632 243.792 194.161 229.761 187.734 217.012C174.435 190.684 156.309 166.902 134.935 146.673C122.846 135.228 109.73 124.93 95.7528 115.912Z" fill="#6B8262"/>
<path d="M404.264 104.934C337.954 149.085 284.049 209.614 247.72 280.713C244.539 286.961 241.37 293.457 236.119 298.093C235.134 298.962 233.902 299.809 232.61 299.545C229.681 298.951 230.551 294.502 232.128 291.955C241.837 276.276 251.54 260.596 261.237 244.914C272.597 226.566 284.029 208.113 298.323 191.966C305.626 183.716 313.652 176.126 321.618 168.547L344.256 147.097C354.264 137.604 364.277 128.105 374.75 119.14C381.9 113.024 389.255 107.158 396.813 101.54C398.91 99.9895 403.158 95.771 406.235 97.2505C410.451 99.247 406.613 103.377 404.264 104.934Z" fill="#6B8262"/>
<path d="M261.149 354.363C258.631 368.531 256.6 383.755 247.167 394.59C239.672 403.198 228.318 407.752 216.979 408.758C205.641 409.765 194.254 407.526 183.321 404.358C180.036 403.396 176.636 402.29 174.014 400.035C169.957 396.521 168.539 390.916 167.296 385.68C157.745 344.863 148.193 304.046 138.642 263.229C185.949 264.329 233.278 265.429 280.585 264.439C280.894 264.393 281.209 264.409 281.511 264.487C281.814 264.564 282.098 264.701 282.348 264.89C282.824 265.368 282.786 266.138 282.714 266.809C281.165 281.192 275.745 294.859 271.853 308.774C267.659 323.8 263.881 338.98 261.149 354.363Z" fill="#D48648"/>
<path d="M280.601 264.714C280.91 264.668 281.225 264.684 281.528 264.762C281.83 264.839 282.115 264.976 282.364 265.165C282.835 265.643 282.802 266.413 282.731 267.084C282.379 270.239 281.869 273.375 281.204 276.478C278.839 277.534 276.085 277.732 273.457 277.881C258.768 278.678 243.965 279.107 229.572 282.171C215.179 285.234 200.993 291.163 190.526 301.536C186.568 305.452 183.146 310.023 181.175 315.242C179.494 319.68 178.903 324.443 178.345 329.162C176.489 344.815 174.835 360.573 175.607 376.319C175.979 383.97 177.162 392.137 182.303 397.769C185.144 400.893 188.944 402.95 192.754 404.76C195.71 406.16 198.716 407.444 201.771 408.61C195.527 407.753 189.358 406.41 183.321 404.595C180.036 403.632 176.636 402.527 174.014 400.266C169.957 396.757 168.539 391.153 167.297 385.917L138.637 263.465C185.965 264.593 233.294 265.687 280.601 264.714Z" fill="#F2AE72"/>
<path d="M282.2 270.621C259.277 275.444 235.665 275.774 212.271 276.121L164.866 276.759C157.661 276.858 150.391 276.951 143.328 275.51C140.186 274.872 137.005 273.86 134.569 271.787C132.132 269.713 130.6 266.287 131.492 263.19C133.036 257.795 140.049 256.684 145.633 256.706C169.081 256.783 192.464 258.757 215.863 260.006C237.762 261.194 261.079 263.135 282.523 258.29C285.972 257.514 289.761 257.822 290.888 262.14C292.268 267.447 286.257 269.768 282.2 270.621Z" fill="#D48648"/>
<path d="M151.606 300.54C154.677 302.647 157.814 305.21 161.537 305.248C167.165 305.298 171.282 299.616 176.79 298.456C185.391 296.641 192.699 306.211 201.486 306.244C210.098 306.277 216.618 297.24 225.219 296.855C235.961 296.377 244.556 309.505 255.045 307.146C260.164 305.996 263.805 301.382 268.732 299.512C270.858 298.749 273.136 298.511 275.373 298.819C274.327 302.174 273.282 305.523 272.318 308.884C271.484 308.532 270.605 308.3 269.707 308.196C262.338 307.371 256.567 315.445 249.193 315.896C240.138 316.446 233.864 305.683 224.847 304.803C215.206 303.862 207.257 314.51 197.616 313.548C189.825 312.772 183.025 304.478 175.613 307.008C170.915 308.614 167.587 314.351 162.67 313.68C158.039 313.058 155.717 306.986 151.119 306.156C150.321 305.966 149.491 305.966 148.693 306.156L146.788 298.016C148.523 298.583 150.151 299.436 151.606 300.54Z" fill="#F2AE72"/>
<path d="M151.639 300.474C154.716 302.581 157.853 305.144 161.57 305.182C167.198 305.232 171.315 299.551 176.823 298.39C181.438 297.417 185.675 299.721 189.962 302.07C188.098 303.952 186.403 305.997 184.898 308.18C181.838 306.744 178.788 305.859 175.624 306.937C170.937 308.543 167.598 314.263 162.671 313.614C158.044 312.987 155.718 306.92 151.119 306.084C150.303 305.945 149.468 305.965 148.661 306.145L146.755 298.005C148.496 298.581 150.142 299.414 151.639 300.474Z" fill="#D48648"/>
<path d="M289.804 311.134C291.994 318.674 292.043 326.737 290.713 334.481C288.709 346.141 283.278 357.581 273.889 364.731C263.044 372.981 248.706 374.444 235.304 376.633C227.581 377.887 219.916 379.476 212.31 381.401C209.49 382.116 206.441 382.864 203.742 381.775C200.725 380.56 198.962 377.304 198.404 374.075C196.964 365.699 202.373 357.3 209.583 352.845C216.793 348.39 225.46 347.098 233.88 346.3C242.3 345.503 250.917 345.046 258.812 341.972C260.624 341.262 262.431 340.393 263.778 338.98C265.316 337.368 266.115 335.201 266.745 333.062C269.329 324.262 269.635 314.951 271.732 306.019C272.505 302.524 273.593 299.107 274.984 295.811C276.813 291.664 278.001 292.511 280.891 295.464C285.095 299.875 288.155 305.256 289.804 311.134Z" fill="#EACEA4"/>
<path d="M190.488 56.2482C190.237 57.3305 190.105 58.437 190.094 59.5482C190.067 62.8214 191.114 66.0123 193.075 68.6268C195.036 71.2413 197.8 73.1334 200.939 74.0103C204.078 74.8872 207.418 74.7 210.44 73.4775C213.463 72.255 216 70.0656 217.659 67.2481C217.167 69.3335 216.233 71.2876 214.92 72.9768C213.607 74.666 211.947 76.0505 210.052 77.0355C208.158 78.0205 206.074 78.5829 203.943 78.6841C201.812 78.7853 199.684 78.423 197.706 77.622C195.727 76.8209 193.944 75.6001 192.478 74.0428C191.013 72.4856 189.899 70.6288 189.214 68.5993C188.528 66.5698 188.287 64.4156 188.507 62.2839C188.727 60.1522 189.403 58.0934 190.488 56.2482Z" fill="#E9F1F4"/>
<path d="M191.764 73.9693C186.46 67.7107 187.211 58.3175 193.441 52.9891C199.671 47.6607 209.021 48.4149 214.325 54.6735C219.629 60.9321 218.878 70.3252 212.648 75.6536C206.418 80.982 197.068 80.2279 191.764 73.9693Z" fill="white"/>
<path d="M202.937 79.6891C205.964 79.7119 208.929 78.8324 211.458 77.1618C213.988 75.4912 215.967 73.1045 217.145 70.3038C218.324 67.503 218.65 64.414 218.081 61.4274C217.512 58.4408 216.074 55.6908 213.949 53.5253C211.824 51.3598 209.107 49.876 206.143 49.2617C203.179 48.6474 200.099 48.9301 197.295 50.0741C194.49 51.2181 192.087 53.172 190.388 55.6886C188.689 58.2052 187.771 61.1715 187.75 64.2122C187.73 68.2852 189.316 72.2004 192.162 75.101C195.009 78.0017 198.883 79.6514 202.937 79.6891ZM203.15 49.9288C205.984 49.9495 208.747 50.8136 211.091 52.4118C213.436 54.0101 215.256 56.2707 216.321 58.908C217.387 61.5452 217.651 64.4406 217.078 67.2283C216.506 70.0159 215.124 72.5705 213.107 74.5693C211.09 76.568 208.528 77.921 205.746 78.4574C202.964 78.9938 200.085 78.6893 197.475 77.5826C194.865 76.4759 192.64 74.6165 191.081 72.2396C189.523 69.8627 188.701 67.0749 188.719 64.2287C188.747 60.4103 190.282 56.7591 192.988 54.0776C195.694 51.3962 199.35 49.9039 203.15 49.9288Z" fill="#E0BA99"/>
<path d="M192.436 64.8392C192.423 66.7656 192.979 68.6527 194.034 70.2617C195.089 71.8706 196.594 73.1293 198.361 73.8786C200.128 74.6278 202.076 74.834 203.959 74.4709C205.842 74.1079 207.576 73.192 208.941 71.8391C210.306 70.4861 211.241 68.7569 211.628 66.87C212.015 64.9832 211.836 63.0234 211.115 61.2387C210.393 59.4539 209.16 57.9242 207.573 56.8431C205.986 55.7619 204.115 55.1779 202.198 55.1648C200.925 55.1561 199.662 55.3994 198.482 55.8809C197.303 56.3624 196.229 57.0726 195.323 57.9709C194.416 58.8693 193.695 59.9382 193.2 61.1167C192.704 62.2952 192.445 63.5601 192.436 64.8392Z" fill="#593E39"/>
<path d="M201.864 73.5786C200.71 70.7113 199.953 67.6986 199.614 64.6246C199.275 61.5339 199.846 58.4111 201.256 55.6432C201.207 55.6432 202.192 56.6277 202.258 56.7102C202.691 57.2987 202.806 58.3602 202.975 59.0477C203.894 63.1069 203.776 67.3338 202.63 71.3346C202.526 71.7141 201.744 73.2486 201.864 73.5786Z" fill="#30211F"/>
<path d="M210.18 65.4991C210.137 65.8221 210.033 66.1339 209.873 66.4176C209.794 66.5615 209.683 66.6855 209.55 66.7807C209.416 66.8759 209.263 66.9398 209.102 66.9676C208.861 66.9663 208.626 66.89 208.43 66.7491C208.234 66.6083 208.086 66.4098 208.007 66.1811C207.858 65.719 207.78 65.2368 207.777 64.7511C207.664 63.4568 207.258 62.2056 206.589 61.0937C205.466 59.2237 208.231 59.6527 208.976 60.6867C209.995 62.0677 210.428 63.7981 210.18 65.4991Z" fill="white"/>
<path d="M205.373 59.1852C205.182 59.2037 204.989 59.1803 204.807 59.1167C204.626 59.0531 204.46 58.9507 204.322 58.8167C204.043 58.5509 203.815 58.2358 203.649 57.8872C203.556 57.7112 203.474 57.4692 203.616 57.3372C203.668 57.2854 203.735 57.2509 203.807 57.2382C204.184 57.1514 204.575 57.1613 204.947 57.2671C205.318 57.3728 205.657 57.571 205.932 57.8432C206.022 57.9601 206.079 58.0989 206.099 58.2455C206.118 58.3921 206.098 58.5412 206.042 58.6776C205.985 58.814 205.893 58.9329 205.776 59.0221C205.658 59.1112 205.519 59.1675 205.373 59.1852Z" fill="white"/>
<path d="M264.55 67.1766C263.742 70.6385 264.195 74.2764 265.825 77.4323C267.456 80.5881 270.157 83.0535 273.44 84.3826C276.722 85.7116 280.37 85.8164 283.723 84.6781C287.076 83.5399 289.913 81.2336 291.721 78.1766C291.229 80.262 290.295 82.2161 288.982 83.9053C287.669 85.5945 286.009 86.979 284.114 87.964C282.22 88.949 280.136 89.5113 278.005 89.6126C275.874 89.7138 273.746 89.3515 271.768 88.5504C269.789 87.7494 268.006 86.5285 266.54 84.9713C265.075 83.4141 263.961 81.5572 263.276 79.5278C262.59 77.4983 262.349 75.344 262.569 73.2124C262.789 71.0807 263.465 69.0218 264.55 67.1766Z" fill="#E9F1F4"/>
<path d="M262.311 75.1406C262.29 78.0843 263.139 80.968 264.75 83.427C266.361 85.8859 268.662 87.8098 271.361 88.9551C274.06 90.1004 277.037 90.4158 279.915 89.8614C282.793 89.3069 285.442 87.9076 287.528 85.8403C289.615 83.773 291.044 81.1307 291.635 78.2475C292.226 75.3642 291.953 72.3696 290.85 69.6424C289.747 66.9151 287.863 64.5778 285.438 62.9259C283.013 61.274 280.154 60.3818 277.224 60.3622C275.279 60.3484 273.35 60.7198 271.547 61.4551C269.745 62.1904 268.104 63.2752 266.72 64.6476C265.335 66.02 264.233 67.6531 263.476 69.4535C262.72 71.2539 262.324 73.1864 262.311 75.1406Z" fill="white"/>
<path d="M277.005 90.6175C280.031 90.6392 282.996 89.7587 285.524 88.0874C288.053 86.4162 290.031 84.0291 291.209 81.2283C292.387 78.4274 292.712 75.3386 292.142 72.3523C291.572 69.3661 290.134 66.6166 288.009 64.4516C285.884 62.2867 283.167 60.8035 280.203 60.1896C277.239 59.5757 274.16 59.8588 271.356 61.003C268.551 62.1471 266.148 64.101 264.449 66.6175C262.751 69.134 261.833 72.1001 261.812 75.1406C261.792 79.2145 263.379 83.1306 266.226 86.0313C269.074 88.9321 272.949 90.5812 277.005 90.6175ZM277.213 60.8517C280.046 60.8724 282.809 61.7365 285.153 63.3347C287.498 64.933 289.318 67.1936 290.384 69.8308C291.449 72.4681 291.713 75.3635 291.14 78.1511C290.568 80.9388 289.186 83.4934 287.169 85.4921C285.152 87.4908 282.591 88.8439 279.808 89.3803C277.026 89.9166 274.147 89.6122 271.537 88.5054C268.927 87.3987 266.702 85.5394 265.143 83.1624C263.585 80.7855 262.763 77.9978 262.781 75.1516C262.812 71.3341 264.348 67.6846 267.054 65.0038C269.759 62.3229 273.413 60.8297 277.213 60.8517Z" fill="#E0BA99"/>
<path d="M266.504 75.7621C266.49 77.6888 267.045 79.5763 268.099 81.186C269.153 82.7957 270.658 84.0553 272.425 84.8054C274.191 85.5555 276.139 85.7624 278.023 85.4C279.907 85.0376 281.641 84.1221 283.007 82.7694C284.372 81.4167 285.308 79.6874 285.695 77.8004C286.083 75.9134 285.904 73.9534 285.182 72.1683C284.461 70.3832 283.228 68.8532 281.641 67.7718C280.054 66.6905 278.183 66.1063 276.265 66.0932C274.992 66.0837 273.73 66.3264 272.55 66.8073C271.371 67.2882 270.297 67.9979 269.39 68.8958C268.484 69.7937 267.762 70.8623 267.267 72.0404C266.772 73.2186 266.512 74.4832 266.504 75.7621Z" fill="#593E39"/>
<path d="M275.931 84.5016C274.777 81.6341 274.018 78.6216 273.676 75.5476C273.34 72.457 273.911 69.3352 275.318 66.5662C275.274 66.5662 276.26 67.5507 276.32 67.6662C276.758 68.2547 276.867 69.3161 277.037 70.0036C277.404 71.6068 277.607 73.2432 277.645 74.8876C277.683 76.5331 277.558 78.1783 277.272 79.7991C277.123 80.6393 276.929 81.471 276.692 82.2906C276.588 82.6481 275.805 84.1771 275.931 84.5016Z" fill="#30211F"/>
<path d="M284.242 76.4277C284.202 76.7513 284.098 77.0635 283.936 77.3462C283.856 77.49 283.745 77.6141 283.612 77.7093C283.478 77.8045 283.325 77.8683 283.164 77.8962C282.922 77.8957 282.687 77.8196 282.491 77.6787C282.295 77.5377 282.147 77.3388 282.069 77.1097C281.918 76.6497 281.839 76.1693 281.833 75.6852C281.721 74.3916 281.316 73.1408 280.651 72.0277C279.556 70.1577 282.293 70.5812 283.032 71.6207C283.54 72.3021 283.908 73.0776 284.116 73.9027C284.323 74.7277 284.366 75.5859 284.242 76.4277Z" fill="white"/>
<path d="M279.424 70.1082C279.233 70.1259 279.041 70.1027 278.86 70.0402C278.679 69.9776 278.513 69.877 278.373 69.7452C278.094 69.4806 277.867 69.1652 277.705 68.8157C277.607 68.6342 277.53 68.3922 277.667 68.2657C277.724 68.2202 277.789 68.1866 277.859 68.1667C278.236 68.0809 278.628 68.0914 279 68.197C279.372 68.3027 279.712 68.5003 279.988 68.7717C280.077 68.8889 280.133 69.0277 280.152 69.1739C280.17 69.3201 280.149 69.4686 280.092 69.6043C280.035 69.7399 279.943 69.858 279.826 69.9465C279.708 70.035 279.57 70.0908 279.424 70.1082Z" fill="white"/>
<path d="M240.477 87.4935C240.874 87.5935 241.244 87.7817 241.559 88.0443C241.875 88.3069 242.127 88.6372 242.298 89.0109C242.47 89.3845 242.555 89.792 242.549 90.2034C242.543 90.6147 242.445 91.0193 242.262 91.3875C241.528 93.4335 239.793 94.946 237.975 96.1285C236.158 97.311 234.192 98.2735 232.566 99.709C230.665 97.8916 228.943 95.8931 227.426 93.7415C226.743 92.8594 226.22 91.8633 225.882 90.799C225.597 89.699 225.537 88.1975 226.199 87.301C226.927 86.3165 230.032 84.551 232.566 86.2835C233.426 86.8335 234.242 87.3835 234.691 88.269C235.507 87.6512 236.469 87.2553 237.483 87.1194C238.496 86.9836 239.528 87.1124 240.477 87.4935Z" fill="#593E39"/>
<path d="M218.184 110.89C218.237 110.78 218.33 110.695 218.444 110.651C218.558 110.607 218.684 110.608 218.797 110.654C221.37 111.583 224.359 111.754 226.878 110.577C229.615 109.29 231.175 106.43 231.805 103.564C231.856 103.348 231.9 103.134 231.936 102.921C231.936 102.805 231.936 102.695 231.936 102.58C231.858 100.362 232.003 98.1414 232.369 95.9525C232.387 95.8307 232.452 95.7211 232.551 95.6479C232.65 95.5747 232.773 95.5438 232.894 95.562C233.016 95.5802 233.125 95.6461 233.198 95.7451C233.27 95.8441 233.301 95.9682 233.283 96.09C233.228 96.4255 233.179 96.7555 233.135 97.091C233.224 97.1356 233.297 97.2065 233.344 97.294C233.391 97.3816 233.41 97.4817 233.398 97.5805C233.336 99.382 233.153 101.177 232.85 102.954C232.928 104.432 233.111 105.902 233.398 107.354C233.536 108.198 233.806 109.014 234.197 109.774C234.62 110.482 235.143 111.123 235.752 111.677C238.372 114.171 241.767 115.684 245.366 115.961C245.428 115.971 245.487 115.992 245.541 116.025C245.594 116.058 245.64 116.102 245.677 116.153C245.713 116.205 245.739 116.263 245.752 116.324C245.765 116.386 245.766 116.45 245.754 116.511C245.745 116.574 245.723 116.634 245.691 116.688C245.658 116.742 245.615 116.789 245.564 116.825C245.513 116.862 245.455 116.889 245.394 116.903C245.332 116.917 245.269 116.918 245.207 116.907C241.646 116.619 238.272 115.188 235.582 112.826C234.898 112.241 234.283 111.578 233.748 110.852C233.24 110.107 232.869 109.276 232.653 108.399C232.425 107.494 232.255 106.576 232.144 105.649C231.862 106.47 231.495 107.259 231.049 108.003C230.219 109.366 229.046 110.487 227.65 111.253C226.341 111.935 224.896 112.311 223.423 112.353C221.717 112.405 220.017 112.129 218.414 111.539C218.355 111.514 218.302 111.476 218.258 111.429C218.214 111.381 218.181 111.326 218.159 111.265C218.138 111.204 218.129 111.139 218.133 111.075C218.137 111.011 218.154 110.948 218.184 110.89Z" fill="#593E39"/>
<path d="M192.574 15.6475C187.329 24.0184 187.099 34.4684 184.602 44.0438C184.767 43.4058 188.336 42.2948 188.982 42.0308C190.635 41.3598 192.314 40.7658 194.019 40.2488C197.249 39.2753 201.081 39.3193 204.169 38.1698C208.516 36.5474 201.087 26.1304 199.587 23.8259C197.658 20.7707 195.296 18.0154 192.574 15.6475Z" fill="#FFE0B6"/>
<path d="M305.654 33.8798C298.361 36.5253 293.013 42.7678 288.381 49.0158C294.951 55.7752 300.809 63.0242 306.896 70.1852C306.617 64.4927 307.822 58.8662 307.849 53.1352C307.86 51.5072 306.141 33.7038 305.654 33.8798Z" fill="#FFE0B6"/>
<path d="M276.145 138.528C259.513 146.552 239.864 147.405 222.142 142.262C204.421 137.12 188.604 126.23 176.264 112.452C179.878 120.614 184.553 128.259 189.36 135.778C194.67 144.077 200.38 152.492 208.598 157.893C218.381 164.317 230.831 165.736 242.344 163.707C253.858 161.677 264.577 156.485 274.645 150.507C280.536 147.009 286.432 143.038 290.708 137.582C291.639 136.388 295.597 131.614 294.387 130.058C293.237 128.589 289.131 130.96 288.053 131.587C284.051 133.902 280.311 136.52 276.145 138.528Z" fill="#DBC09C"/>
<path d="M267.692 47.5968C266.821 49.0103 265.502 50.1048 264.473 51.3973C263.281 52.8767 262.436 54.6058 261.998 56.4573C261.079 60.3897 261.746 65.2572 258.571 67.7377C258.221 68.0127 257.706 68.2382 257.345 67.9742C257.226 67.8492 257.135 67.7002 257.078 67.537C257.022 67.3738 257.001 67.2003 257.016 67.0282C256.874 63.3047 256.759 59.4328 258.259 56.0283C259.272 53.7348 260.996 51.7383 261.544 49.2963C262.228 46.2218 260.947 42.9218 261.801 39.8913C262.146 38.6814 262.819 37.5539 263.121 36.3494C265.256 36.9764 267.363 37.684 269.444 38.4724C269.132 41.5578 269.258 45.0668 267.692 47.5968Z" fill="#FFE0B6"/>
<path d="M232.008 47.7397C230.573 43.3838 232.654 38.7583 234.17 34.4298C234.392 33.7976 234.519 33.1359 234.548 32.4663C236.371 32.4663 238.189 32.4993 239.99 32.5818C239.38 33.4604 238.982 34.4698 238.829 35.5298C238.506 37.6913 238.911 39.9023 238.703 42.0748C238.44 44.7752 237.236 47.3822 237.449 50.0882C237.636 52.5302 238.971 54.8072 238.906 57.2382C238.807 60.6207 236.043 63.6511 236.524 67.0006C236.71 68.2766 237.209 69.9321 236.103 70.5811C234.131 67.9119 233.25 64.5867 233.639 61.2862C233.946 58.7782 234.986 56.2922 234.542 53.8062C234.154 51.6502 232.692 49.8352 232.008 47.7397Z" fill="#FFE0B6"/>
<path d="M229.38 32.5984C228.51 34.2053 228.005 35.986 227.902 37.8124C227.661 40.5349 227.792 43.3673 226.747 45.8863C226.341 46.8653 225.493 47.8993 224.458 47.7068C223.522 47.5308 223.046 46.4088 223.155 45.4573C223.265 44.5058 223.768 43.6643 224.097 42.7623C225.224 39.6659 224.151 36.2834 223.943 32.9669C225.761 32.8019 227.573 32.6791 229.38 32.5984Z" fill="#FFE0B6"/>
<path d="M241.972 66.1702C242.163 64.8062 243.559 64.0252 244.539 63.0627C246.97 60.6812 246.959 56.7487 246.182 53.4267C245.634 50.9958 244.742 48.3723 245.755 46.0953C246.767 43.8183 249.302 42.5313 249.724 40.1608C249.992 38.6593 249.313 37.1688 248.629 35.8103C248.17 34.8655 247.62 33.9683 246.986 33.1318C249.757 33.4435 252.494 33.8688 255.198 34.4078C254.607 36.9983 256.036 40.0783 255.489 42.8283C254.892 45.7763 252.171 47.7783 250.802 50.4513C248.547 54.8512 250.255 60.3897 248.667 65.0867C248.12 66.6872 247.025 68.2712 245.41 68.7112C243.795 69.1512 241.742 67.8642 241.972 66.1702Z" fill="#FFE0B6"/>
<path d="M209.583 352.873C216.47 348.61 224.699 347.246 232.774 346.432C235.168 347.79 237.25 349.641 238.882 351.864C240.515 354.086 241.661 356.631 242.245 359.33C243.565 365.297 241.627 371.809 237.526 376.292L235.303 376.649C227.58 377.903 219.916 379.493 212.31 381.418C209.49 382.133 206.441 382.881 203.742 381.792C200.725 380.576 198.962 377.32 198.409 374.092C196.964 365.726 202.373 357.328 209.583 352.873Z" fill="#FFE0B6"/>
</g>
<defs>
<clipPath id="clip0">
<rect width="447" height="409" fill="white" transform="matrix(-1 0 0 1 447 0)"/>
</clipPath>
</defs>
</svg>
